<?xml version="1.0" standalone="no"?>
<!DOCTYPE svg PUBLIC "-//W3C//DTD SVG 20010904//EN" "http://www.w3.org/TR/2001/REC-SVG-20010904/DTD/svg10.dtd">
<!-- Created using Krita: http://krita.org -->
<svg xmlns="http://www.w3.org/2000/svg" 
    xmlns:xlink="http://www.w3.org/1999/xlink"
    xmlns:krita="http://krita.org/namespaces/svg/krita"
    xmlns:sodipodi="http://sodipodi.sourceforge.net/DTD/sodipodi-0.dtd"
    width="1863pt"
    height="900pt"
    viewBox="0 0 1863 900">
<defs/>
<rect id="shape0" transform="translate(-120, -55.5)" fill="#ffffff" fill-rule="evenodd" stroke="#ffffff" stroke-width="14.8725" stroke-linecap="square" stroke-linejoin="bevel" width="2103" height="1011"/><text id="shape1" transform="translate(1115.9999516, 87.499997855)" fill="#000000" font-size="71" font-size-adjust="0.452206"><tspan x="0">Web worker</tspan></text><text id="shape0" transform="matrix(0.99999997134 0 0 1 125.9015493 694.69998283)" fill="#000000" font-family="Umpush" font-size="44" font-size-adjust="0.25142"><tspan x="0">push</tspan></text><text id="shape2" transform="translate(1160.9999833, 313.24999829)" fill="#000000" font-family="Umpush" font-size="44" font-size-adjust="0.25142"><tspan x="0">cache</tspan></text><text id="shape3" transform="translate(57.749992435, 325.24998941)" fill="#000000" font-family="Umpush" font-size="44" font-size-adjust="0.25142"><tspan x="0">get</tspan></text><text id="shape01" transform="matrix(0.99999999539 0 0 1 147.79530738 93.299998053)" fill="#000000" font-size="68" font-size-adjust="0.452206"><tspan x="0">Main thread</tspan></text><text id="shape4" transform="translate(1524.7499333, 342.49998361)" fill="#000000" font-family="Umpush" font-size="44" font-size-adjust="0.25142"><tspan x="0">Disk cache</tspan></text><text id="shape5" transform="translate(215.99999064, 190.99999337)" fill="#000000" font-size="54" font-size-adjust="0.452206"><tspan x="0">Zip dataset</tspan></text><text id="shape6" transform="translate(1228.4999468, 195.49999317)" fill="#000000" font-family="Umpush" font-size="54" font-size-adjust="0.25142"><tspan x="0">Dataset</tspan></text><text id="shape7" transform="translate(900.7499566, 703.2499817)" fill="#000000" font-family="Umpush" font-size="44" font-size-adjust="0.25142"><tspan x="0">lz4 compress</tspan></text><text id="shape02" transform="matrix(1.0000000037 0 0 1 1051.7124593 510.19997509)" fill="#000000" font-family="Umpush" font-size="44" font-size-adjust="0.25142"><tspan x="0">lz4 decompress</tspan></text><text id="shape8" transform="translate(356.99999288, 329.37498306)" fill="#000000" font-family="Umpush" font-size="54" font-size-adjust="0.25142"><tspan x="0">prefetch</tspan></text><path id="shape9" transform="translate(181.49999247, 311.24998902)" fill="none" stroke="#000000" stroke-width="15" stroke-linecap="square" stroke-linejoin="miter" stroke-miterlimit="2" d="M0 0L150 0"/><path id="shape10" transform="translate(296.99998747, 288.74999)" fill="none" stroke="#000000" stroke-width="15" stroke-linecap="square" stroke-linejoin="miter" stroke-miterlimit="2" d="M34.5 19.5L0 0"/><path id="shape11" transform="translate(307.49998701, 311.24998902)" fill="none" stroke="#000000" stroke-width="15" stroke-linecap="square" stroke-linejoin="miter" stroke-miterlimit="2" d="M27 0L0 27"/><path id="shape12" transform="translate(662.24999395, 300.3750003)" fill="none" stroke="#000000" stroke-width="15" stroke-linecap="square" stroke-linejoin="miter" stroke-miterlimit="2" d="M0 4.5L346.5 0"/><path id="shape13" transform="translate(947.24999005, 265.12500082)" fill="none" stroke="#000000" stroke-width="15" stroke-linecap="square" stroke-linejoin="miter" stroke-miterlimit="2" d="M63 33.75L0 0"/><path id="shape14" transform="translate(952.49999002, 302.62500027)" fill="none" stroke="#000000" stroke-width="15" stroke-linecap="square" stroke-linejoin="miter" stroke-miterlimit="2" d="M54 0L0 45"/><path id="shape15" transform="translate(1223.2499847, 404.99999103)" fill="none" stroke="#000000" stroke-width="15" stroke-linecap="square" stroke-linejoin="miter" stroke-miterlimit="2" d="M33.75 31.5L0 0"/><path id="shape16" transform="translate(1269.7499843, 406.49999108)" fill="none" stroke="#000000" stroke-width="15" stroke-linecap="square" stroke-linejoin="miter" stroke-miterlimit="2" d="M0 31.5L45 0"/><path id="shape17" transform="translate(1372.4999805, 303.74999736)" fill="none" stroke="#000000" stroke-width="15" stroke-linecap="square" stroke-linejoin="miter" stroke-miterlimit="2" d="M0 0L112.5 4.5"/><path id="shape18" transform="translate(1435.4999796, 278.9999977)" fill="none" stroke="#000000" stroke-width="15" stroke-linecap="square" stroke-linejoin="miter" stroke-miterlimit="2" d="M49.5 29.25L0 0"/><path id="shape19" transform="translate(1442.2499795, 305.99999733)" fill="none" stroke="#000000" stroke-width="15" stroke-linecap="square" stroke-linejoin="miter" stroke-miterlimit="2" d="M42.75 0L0 24.75"/><path id="shape20" transform="translate(1383.7499803, 371.24999645)" fill="none" stroke="#000000" stroke-width="15" stroke-linecap="square" stroke-linejoin="miter" stroke-miterlimit="2" d="M0 2.25L117 0"/><path id="shape21" transform="translate(1374.7499805, 350.99999672)" fill="none" stroke="#000000" stroke-width="15" stroke-linecap="square" stroke-linejoin="miter" stroke-miterlimit="2" d="M0 20.25L47.25 0"/><path id="shape22" transform="translate(1376.9999804, 377.99999636)" fill="none" stroke="#000000" stroke-width="15" stroke-linecap="square" stroke-linejoin="miter" stroke-miterlimit="2" d="M0 0L47.25 22.5"/><path id="shape23" transform="translate(478.75549259, 489.37499743)" fill="none" stroke="#000000" stroke-width="15" stroke-linecap="square" stroke-linejoin="miter" stroke-miterlimit="2" d="M519.119 0L0 4.5"/><path id="shape24" transform="translate(479.24999676, 448.87499803)" fill="none" stroke="#000000" stroke-width="15" stroke-linecap="square" stroke-linejoin="miter" stroke-miterlimit="2" d="M0 42.75L83.25 0"/><path id="shape25" transform="translate(480.74999639, 496.1249972)" fill="none" stroke="#000000" stroke-width="15" stroke-linecap="square" stroke-linejoin="miter" stroke-miterlimit="2" d="M0 0L69.75 33.75"/><path id="shape26" transform="translate(658.87499408, 366.74999852)" fill="none" stroke="#000000" stroke-width="15" stroke-linecap="square" stroke-linejoin="miter" stroke-miterlimit="2" d="M0 0L126 0"/><path id="shape27" transform="translate(733.12499307, 339.74999889)" fill="none" stroke="#000000" stroke-width="15" stroke-linecap="square" stroke-linejoin="miter" stroke-miterlimit="2" d="M51.75 27L0 0"/><path id="shape28" transform="translate(739.87499298, 364.49999855)" fill="none" stroke="#000000" stroke-width="15" stroke-linecap="square" stroke-linejoin="miter" stroke-miterlimit="2" d="M40.5 0L0 24.75"/><path id="shape29" transform="translate(668.99997084, 413.99998373)" fill="none" stroke="#000000" stroke-width="15" stroke-linecap="square" stroke-linejoin="miter" stroke-miterlimit="2" d="M0 0L6.75 0"/><path id="shape30" transform="translate(701.62496943, 413.99998373)" fill="none" stroke="#000000" stroke-width="15" stroke-linecap="square" stroke-linejoin="miter" stroke-miterlimit="2" d="M0 0L9 0"/><path id="shape31" transform="translate(731.99996811, 413.99998373)" fill="none" stroke="#000000" stroke-width="15" stroke-linecap="square" stroke-linejoin="miter" stroke-miterlimit="2" d="M0 0L5.625 0"/><path id="shape32" transform="translate(-12.374959096, 220.49999044)" fill="none" stroke="#000000" stroke-width="3.8775" stroke-linecap="square" stroke-linejoin="miter" stroke-miterlimit="2" d="M0 9L1887.75 0"/><path id="shape33" transform="translate(813.74996465, -28.12497928)" fill="none" stroke="#000000" stroke-width="3.8775" stroke-linecap="square" stroke-linejoin="miter" stroke-miterlimit="2" d="M0 0L9.00004 956.25"/><path id="shape34" transform="translate(0, 614.24997338)" fill="none" stroke="#000000" stroke-width="3.8775" stroke-linecap="square" stroke-linejoin="miter" stroke-miterlimit="2" d="M0 0L1863 4.5"/><text id="shape03" transform="matrix(1.000000043 0 0 1 1499.043768 709.69998178)" fill="#000000" font-family="Umpush" font-size="44" font-size-adjust="0.25142"><tspan x="0">cache</tspan></text><path id="shape35" transform="translate(1264.9659742, 351.64339336)" fill="none" stroke="#000000" stroke-width="14.8725" stroke-linecap="square" stroke-linejoin="miter" stroke-miterlimit="2" d="M0 87.75L0 0"/><text id="shape04" transform="matrix(1.0000000027 0 0 1 1387.1624436 837.94997671)" fill="#000000" font-family="Umpush" font-size="44" font-size-adjust="0.25142"><tspan x="0">Disk cache</tspan></text><path id="shape36" transform="translate(314.99998638, 686.24997033)" fill="none" stroke="#000000" stroke-width="14.8725" stroke-linecap="square" stroke-linejoin="miter" stroke-miterlimit="2" d="M0 4.5L553.5 0"/><path id="shape37" transform="translate(839.24996371, 652.49997179)" fill="none" stroke="#000000" stroke-width="14.8725" stroke-linecap="square" stroke-linejoin="miter" stroke-miterlimit="2" d="M0 0L40.5 36"/><path id="shape38" transform="translate(848.24996332, 688.49997023)" fill="none" stroke="#000000" stroke-width="14.8725" stroke-linecap="square" stroke-linejoin="miter" stroke-miterlimit="2" d="M31.5 0L0 31.5"/><path id="shape39" transform="translate(1304.9999436, 686.24997033)" fill="none" stroke="#000000" stroke-width="14.8725" stroke-linecap="square" stroke-linejoin="miter" stroke-miterlimit="2" d="M0 0L155.25 0"/><path id="shape40" transform="translate(1417.4999387, 659.24997149)" fill="none" stroke="#000000" stroke-width="14.8725" stroke-linecap="square" stroke-linejoin="miter" stroke-miterlimit="2" d="M45 27L0 0"/><path id="shape41" transform="translate(1426.4999383, 690.74997013)" fill="none" stroke="#000000" stroke-width="14.8725" stroke-linecap="square" stroke-linejoin="miter" stroke-miterlimit="2" d="M38.25 0L0 24.75"/><path id="shape42" transform="translate(1583.9999315, 737.99996809)" fill="none" stroke="#000000" stroke-width="14.8725" stroke-linecap="square" stroke-linejoin="miter" stroke-miterlimit="2" d="M2.25 0L0 56.25"/><path id="shape43" transform="translate(1550.249933, 764.99996692)" fill="none" stroke="#000000" stroke-width="14.8725" stroke-linecap="square" stroke-linejoin="miter" stroke-miterlimit="2" d="M33.75 29.25L0 0"/><path id="shape44" transform="translate(1579.4999317, 764.99996692)" fill="none" stroke="#000000" stroke-width="14.8725" stroke-linecap="square" stroke-linejoin="miter" stroke-miterlimit="2" d="M0 27L42.75 0"/>
</svg>
